<svg xmlns="http://www.w3.org/2000/svg">
  <symbol id="icon-vk">
    <g clip-path="url(#a4400)"><path fill="#currentColor" d="M1.5 5.339c0-.855.515-1.316 1.545-1.383l3.97.025a.52.52 0 0 1 .533.377c.409 1.257.866 2.343 1.372 3.257.506.913 1.168 1.965 1.985 3.156.071.15.187.226.346.226.125 0 .223-.059.293-.176l.08-.277.027-4.35c0-.302-.075-.503-.226-.604-.151-.1-.431-.176-.84-.226-.32-.05-.48-.235-.48-.553 0-.067.01-.118.027-.151.373-1.09 1.44-1.635 3.198-1.635L14.822 3c.675 0 1.234.16 1.678.478.444.318.666.821.666 1.509v5.708c.125.084.24.126.347.126.266 0 .497-.15.692-.453 1.954-2.582 3.011-4.308 3.17-5.18 0-.017.019-.059.054-.126.125-.251.329-.47.613-.654.284-.184.533-.31.746-.377a.554.554 0 0 1 .24-.05h4.13l.266.025c.355 0 .63.16.826.478.07.1.12.21.146.327.027.117.045.234.054.352.009.117.013.184.013.2v.177c-.124.687-.44 1.42-.946 2.2-.506.78-1.15 1.622-1.931 2.528-.782.905-1.27 1.5-1.466 1.785-.16.201-.24.386-.24.553 0 .135.071.286.213.453l3.89 4.627c.213.269.32.562.32.88 0 .386-.16.705-.48.956-.32.252-.701.394-1.145.428l-.453.025h-4.05a.855.855 0 0 0-.106.012.862.862 0 0 1-.107.013c-.39 0-.755-.16-1.092-.478-.125-.134-.96-1.123-2.505-2.967a1.387 1.387 0 0 0-.373-.327c-.07.268-.164.654-.28 1.157-.115.503-.2.863-.253 1.081l-.08.427c-.177.587-.55.94-1.119 1.057l-.373.025h-2.61c-1.475 0-2.945-.637-4.41-1.911-1.466-1.275-2.784-2.922-3.957-4.942-1.172-2.02-2.264-4.372-3.277-7.054a1.916 1.916 0 0 1-.133-.73Zm16.013 6.513c-.373 0-.71-.096-1.013-.29-.302-.192-.453-.456-.453-.791V4.987c0-.336-.089-.575-.266-.717-.178-.143-.489-.214-.933-.214l-1.518.05c-.764 0-1.341.126-1.732.378.781.352 1.172.922 1.172 1.71v4.426a1.5 1.5 0 0 1-.533 1.044 1.59 1.59 0 0 1-1.066.414c-.532 0-.94-.243-1.225-.729C8.56 9.371 7.53 7.493 6.856 5.716l-.24-.654-3.544-.025c-.231 0-.36.013-.386.038-.027.025-.04.096-.04.213 0 .151.017.31.053.478l.56 1.409c1.491 3.638 3.112 6.505 4.862 8.6 1.75 2.096 3.468 3.144 5.155 3.144h2.665c.106 0 .186-.03.24-.088.053-.06.097-.172.133-.34l.053-.251.506-2.213c.142-.302.267-.503.373-.604a.975.975 0 0 1 .693-.277c.426 0 .861.243 1.305.73l2.265 2.716c.142.218.293.327.453.327h4.396c.533 0 .8-.126.8-.378a.466.466 0 0 0-.08-.251l-3.864-4.552c-.302-.352-.453-.73-.453-1.131 0-.403.142-.788.427-1.157.23-.336.679-.893 1.345-1.673a37.63 37.63 0 0 0 1.745-2.187c.498-.68.826-1.296.986-1.849l.08-.327a.371.371 0 0 1-.027-.163.574.574 0 0 0-.026-.189h-4.183c-.267.1-.48.252-.64.453l-.16.478c-.444 1.156-1.607 2.942-3.49 5.356a1.892 1.892 0 0 1-1.305.503Z"/></g><defs><clipPath id="a4400"><path fill="#fff" d="M.5 0h28v22H.5z"/></clipPath></defs>
  </symbol>
  <symbol id="icon-youtube">
    <path fill="#currentColor" d="m18.35 10.793-5.236-3.491a.655.655 0 0 0-1.014.545v6.982a.654.654 0 0 0 1.014.546l5.237-3.491a.655.655 0 0 0 0-1.091Zm-4.94 2.814V9.07l3.403 2.27-3.404 2.268Zm12.48-8.563a2.4 2.4 0 0 0-1.452-1.637C20.718 1.978 14.751 2 14.5 2c-.25 0-6.218-.022-9.938 1.407A2.4 2.4 0 0 0 3.11 5.044C2.827 6.113 2.5 8.076 2.5 11.338c0 3.262.327 5.226.61 6.295a2.4 2.4 0 0 0 1.452 1.636c3.72 1.43 9.687 1.407 9.938 1.407h.076c.753 0 6.317-.043 9.862-1.407a2.4 2.4 0 0 0 1.451-1.636c.284-1.07.611-3.033.611-6.295s-.327-5.225-.61-6.294Zm-1.266 12.261a1.09 1.09 0 0 1-.655.742c-3.49 1.342-9.404 1.32-9.469 1.32-.066 0-5.978.022-9.47-1.32a1.09 1.09 0 0 1-.654-.742c-.261-1.003-.567-2.847-.567-5.967 0-3.12.306-4.963.567-5.967a1.09 1.09 0 0 1 .655-.742c3.49-1.342 9.404-1.32 9.469-1.32.066 0 5.978-.022 9.47 1.32a1.092 1.092 0 0 1 .654.742c.262 1.004.567 2.847.567 5.967 0 3.12-.305 4.964-.567 5.967Z"/>
  </symbol>
  <symbol id="icon-telegram">
    <path fill="#currentColor" fill-rule="evenodd" d="M23.96 3.153c.18.15.265.382.227.611l-2.626 15.757a.657.657 0 0 1-1.012.439l-7.878-5.253a.657.657 0 0 1-.149-.956l2.611-3.263-4.36 2.906a.657.657 0 0 1-.658.041L4.863 10.81a.657.657 0 0 1 .073-1.205l18.383-6.566a.657.657 0 0 1 .642.115Zm-17.134 7.17 3.536 1.768 7.561-5.041a.656.656 0 0 1 .877.956l-4.805 6.006 6.438 4.292L22.708 4.65 6.826 10.323Z" clip-rule="evenodd"/>
  </symbol>
  <symbol id="icon-copyright">
    <path fill="#currentColor" d="M13.643.016 13.5 0 0 1.407v24.606L13.5 34 27 26.013V1.407L13.643.016Zm11.591 25L13.5 31.956 1.766 25.015V14.93l11.685 6.916.02 1.253-8.017-4.743-.011 1.225 8.046 4.809.02 1.286-8.045-4.758-.01 1.226L13.5 26.95l8.124-4.833V16.91l3.62-2.15-.01 10.256Zm0-11.564-3.22 1.88-1.482.875-7.065-4.187-.011 1.225 6.04 3.573-.053.031-.13.076-.86.492-4.986-2.948-.011 1.225 3.936 2.328-.933.61-.021.012-2.971-1.742-.011 1.225 1.947 1.135-1.988 1.186-11.618-6.872 11.638-6.958 11.8 6.834Zm0-1.225L13.44 5.31 1.766 12.22V2.99L13.5 1.764 25.234 2.99v9.237Z"/>
  </symbol>
<symbol id="icon-footer--logo">
    <g fill="#currentColor" clip-path="url(#a1122)"><path d="M1.264 17.346A6.855 6.855 0 0 1 0 13.042v-6.38a6.94 6.94 0 0 1 1.185-4.38c.87-1 2.213-1.461 4.189-1.461s3.24.461 4.03 1.306a5.415 5.415 0 0 1 1.186 3.767V7.43H6.718V5.663a3.687 3.687 0 0 0-.238-1.537 1.12 1.12 0 0 0-.456-.472 1.164 1.164 0 0 0-.65-.143c-.553 0-.948.154-1.106.538A4.838 4.838 0 0 0 4.03 5.74v8.224a3.107 3.107 0 0 0 .316 1.614c.158.385.553.538 1.106.538s.87-.153 1.027-.538c.18-.52.26-1.066.238-1.614V12.12h3.872v1.538A5.767 5.767 0 0 1 9.405 17.5c-.79.922-2.134 1.383-4.031 1.383-1.897-.077-3.32-.538-4.11-1.537ZM15.253 1.053h4.504l3.32 17.524H19.44l-.632-3.69h-2.608l-.632 3.69h-3.715l3.399-17.524Zm3.24 11.529-.948-6.84-.949 6.84h1.897ZM25.843 3.973h-2.687v-2.92h9.404v2.844h-2.687v14.68h-4.03V3.973ZM39.752 1.053h6.955v1.844h-4.505v5.765h3.635v1.768h-3.635v6.456h4.505v1.768h-7.034V1.053h.079ZM48.761 1.053H50.5l5.137 11.606V1.053h2.055v17.524h-1.58l-5.217-11.99v11.99h-2.134V1.053ZM60.063 1.053h6.954v1.844h-4.504v5.765h3.635v1.768h-3.635v6.456h4.504v1.768h-6.954V1.053ZM69.072 1.053h3.635a6.455 6.455 0 0 1 4.03 1.076c.87.692 1.265 1.921 1.265 3.536 0 2.228-.71 3.612-2.212 4.073l2.528 8.762h-2.45l-2.37-8.224h-1.976V18.5h-2.529V1.053h.079Zm3.477 7.532a3.526 3.526 0 0 0 2.292-.615c.474-.384.711-1.153.711-2.305a4.838 4.838 0 0 0-.237-1.691 1.973 1.973 0 0 0-.869-.923 3.693 3.693 0 0 0-1.739-.307h-1.106v5.764h.948v.077ZM81.163 17.27a7.602 7.602 0 0 1-1.106-4.458V6.971c-.02-1.114.114-2.225.395-3.305a3.913 3.913 0 0 1 1.502-1.999 5.277 5.277 0 0 1 2.924-.691c1.66 0 2.845.384 3.556 1.23a5.763 5.763 0 0 1 1.107 3.843v.614H87.17v-.538c.003-.643-.05-1.286-.158-1.921a1.532 1.532 0 0 0-.633-1 2.495 2.495 0 0 0-1.501-.384 2.418 2.418 0 0 0-1.58.462c-.187.152-.338.34-.447.551a1.7 1.7 0 0 0-.186.678c-.104.687-.157 1.381-.158 2.076v6.533a6.807 6.807 0 0 0 .474 2.92c.316.615.949.846 1.897.846a1.96 1.96 0 0 0 1.092-.182c.337-.164.617-.422.805-.74a6.898 6.898 0 0 0 .553-3.075v-1.23h-2.292V9.892h4.584v8.685h-1.58l-.238-1.999a3.141 3.141 0 0 1-1.226 1.657 3.29 3.29 0 0 1-2.014.573 4.049 4.049 0 0 1-1.899-.352 3.932 3.932 0 0 1-1.5-1.186ZM94.678 12.43l-3.873-11.3h2.371l2.766 8.455 2.687-8.454H101l-3.873 11.298v6.15h-2.37v-6.15h-.08Z"/></g><defs><clipPath id="a1122"><path fill="#fff" d="M0 .82h101v17.986H0z"/></clipPath></defs>
  </symbol>
</svg>

